<?xml version="1.0" standalone="no"?>
<!DOCTYPE svg PUBLIC "-//W3C//DTD SVG 20010904//EN"
 "http://www.w3.org/TR/2001/REC-SVG-20010904/DTD/svg10.dtd">
<svg version="1.0" xmlns="http://www.w3.org/2000/svg"
 width="376.000000pt" height="376.000000pt" viewBox="0 0 376.000000 376.000000"
 preserveAspectRatio="xMidYMid meet">

<g transform="translate(0.000000,376.000000) scale(0.100000,-0.100000)"
fill="#000000" stroke="none">
<path d="M480 3483 c-47 -24 -70 -73 -70 -150 l0 -63 116 0 116 0 -4 80 c-3
73 -6 82 -33 109 -39 38 -80 46 -125 24z"/>
<path d="M410 2928 l0 -193 115 0 115 0 0 193 0 192 -115 0 -115 0 0 -192z"/>
<path d="M1681 2869 c-224 -60 -411 -215 -510 -422 -75 -155 -74 -149 -79
-662 -2 -323 0 -487 8 -550 14 -103 47 -224 85 -309 14 -32 24 -60 21 -63 -8
-8 -151 69 -216 118 -172 126 -307 328 -361 540 -18 70 -22 123 -26 319 l-5
235 -74 0 -74 0 0 -195 c0 -343 45 -524 186 -742 53 -83 176 -213 263 -279
110 -82 289 -165 419 -194 21 -4 51 -26 84 -61 226 -239 579 -369 904 -334
424 45 777 315 928 707 32 82 56 184 71 296 l6 47 -75 0 c-84 0 -76 9 -91
-105 -4 -27 -18 -86 -32 -130 -98 -312 -357 -557 -678 -641 -143 -37 -327 -37
-469 0 -112 29 -234 85 -320 147 l-60 43 120 17 c255 38 444 130 627 308 133
129 223 272 279 441 48 144 53 194 53 525 0 353 -3 373 -81 530 -103 209 -286
358 -509 415 -107 27 -290 27 -394 -1z m354 -144 c175 -44 339 -177 414 -335
66 -138 73 -191 68 -515 -4 -265 -6 -285 -31 -374 -97 -345 -363 -602 -712
-688 -46 -11 -113 -17 -202 -17 l-134 -1 -24 30 c-36 45 -92 156 -120 238 -49
143 -54 206 -54 671 0 488 3 516 71 656 74 156 238 289 409 334 74 20 240 20
315 1z"/>
<path d="M3158 2711 c-31 -28 -33 -33 -36 -110 l-4 -81 116 0 116 0 0 60 c0
108 -38 160 -117 160 -33 0 -50 -7 -75 -29z"/>
<path d="M445 2574 c-73 -38 -109 -101 -103 -180 11 -134 142 -211 264 -155
78 36 118 120 100 216 -8 43 -59 103 -103 121 -43 19 -121 17 -158 -2z"/>
<path d="M3120 2178 l0 -193 115 0 115 0 0 193 0 192 -115 0 -115 0 0 -192z"/>
<path d="M3155 1824 c-71 -37 -105 -91 -105 -169 0 -60 19 -103 63 -142 90
-79 239 -47 288 61 31 69 19 156 -29 209 -48 53 -155 73 -217 41z"/>
</g>
</svg>
